<svg xmlns="http://www.w3.org/2000/svg" width="94" height="24" viewBox="0 0 94 24">
  <defs>
    <linearGradient id="tf1sf-colored-a" x1="0%" x2="98.852%" y1="50%" y2="50%">
      <stop offset="0%" stop-color="#020186"/>
      <stop offset="50.572%" stop-color="#0500E7"/>
      <stop offset="100%" stop-color="#02A7E6"/>
    </linearGradient>
    <radialGradient id="tf1sf-colored-b" cx="45.028%" cy="0%" r="88.623%" fx="45.028%" fy="0%" gradientTransform="matrix(0 1 -.48684 0 .45 -.45)">
      <stop offset="0%" stop-color="#FFF"/>
      <stop offset="99.203%" stop-color="#FFF" stop-opacity="0"/>
    </radialGradient>
  </defs>
  <g fill="none" fill-rule="evenodd" transform="translate(16)">
    <path d="M-16,7.56036 L-16,15.12072 C-16,15.12072 10.5859345,6.46002 39.2639673,6.5502 L39.2639673,5.70204 L46.489377,3.546 L46.489377,0 L-16,0 L-16,7.56036 L-16,0 L78,0 L78,24 L-16,24 L-16,7.56036 Z"/>
    <path fill="#BDBDC4" d="M63.8572659,11.3916 L63.8572659,3.75876818 L64.959756,3.75876818 L64.959756,11.3916 L63.8572659,11.3916 Z M67.3071776,10.5018682 L69.524382,10.5018682 L69.524382,11.3916 L66.192404,11.3916 L66.192404,3.75876818 L69.4386347,3.75876818 L69.4386347,4.64920909 L67.3071776,4.64920909 L67.3071776,7.00220909 L69.071316,7.00220909 L69.071316,7.89229545 L67.3071776,7.89229545 L67.3071776,10.5018682 Z M72.7383552,10.1480141 L72.7383552,8.282455 C72.7383552,8.13596864 72.7156277,8.04095045 72.6709442,7.99574591 C72.6257859,7.95148682 72.5300695,7.92873682 72.3833793,7.92873682 L71.4764167,7.92873682 C70.7332936,7.92873682 70.3615837,7.56721864 70.3615837,6.84359136 L70.3615837,4.83178227 C70.3615837,4.11690045 70.741542,3.75875045 71.5008651,3.75875045 L72.7013859,3.75875045 C73.4609464,3.75875045 73.8410826,4.11690045 73.8410826,4.83178227 L73.8410826,5.95385955 L72.7260716,5.95385955 L72.7260716,5.002555 C72.7260716,4.85654136 72.7013859,4.76081409 72.6526079,4.71620045 C72.6037705,4.67129136 72.5056211,4.64919136 72.358931,4.64919136 L71.8439727,4.64919136 C71.6968079,4.64919136 71.5991925,4.67129136 71.5501771,4.71620045 C71.5008651,4.76081409 71.4764167,4.85654136 71.4764167,5.002555 L71.4764167,6.69734136 C71.4764167,6.84359136 71.5008651,6.93931864 71.5501771,6.98381409 C71.5991925,7.02866409 71.6968079,7.05076409 71.8439727,7.05076409 L72.7383552,7.05076409 C73.4894299,7.05076409 73.8654716,7.40891409 73.8654716,8.12415045 L73.8654716,10.3185505 C73.8654716,11.0341414 73.4817156,11.3915823 72.7139662,11.3915823 L71.5256695,11.3915823 C70.7664057,11.3915823 70.3860321,11.0341414 70.3860321,10.3185505 L70.3860321,9.19718227 L71.5008651,9.19718227 L71.5008651,10.1480141 C71.5008651,10.2946186 71.5256695,10.3902277 71.5748035,10.4344868 C71.6235815,10.479455 71.7216716,10.5018505 71.8684211,10.5018505 L72.3833793,10.5018505 C72.5300695,10.5018505 72.6257859,10.479455 72.6709442,10.4344868 C72.7156277,10.3902277 72.7383552,10.2946186 72.7383552,10.1480141 Z M55.556742,3.48060955 L56.1229112,2.48073227 L57.1603046,2.48073227 L56.3567134,3.48060955 L55.556742,3.48060955 Z M53.4568125,13.5022032 L51.2272653,13.5022032 L51.2272653,16.0138623 L52.9913444,16.0138623 L52.9913444,16.8796623 L51.2272653,16.8796623 L51.2272653,20.2449486 L50.1124323,20.2449486 L50.1124323,12.6117623 L53.4568125,12.6117623 L53.4568125,13.5022032 Z M54.3467385,20.2450136 L54.3467385,12.6117682 L55.4492286,12.6117682 L55.4492286,20.2450136 L54.3467385,20.2450136 Z M57.6458358,19.3548564 L59.5445589,19.3548564 L59.5445589,20.2449427 L56.542871,20.2449427 L56.542871,12.6117564 L57.6458358,12.6117564 L57.6458358,19.3548564 Z M61.4067815,20.2449723 L60.4387574,20.2449723 L60.4387574,12.6117268 L61.6518585,12.6117268 L62.9626343,17.3426632 L64.2734101,12.6117268 L65.4860365,12.6117268 L65.4860365,20.2449723 L64.5182497,20.2449723 L64.5182497,14.6607041 L63.4648343,18.5865859 L62.4604343,18.5865859 L61.4067815,14.6725223 L61.4067815,20.2449723 Z M68.8957567,19.0006595 L68.8957567,17.1355732 C68.8957567,16.9893232 68.8730292,16.8941277 68.8283457,16.8487459 C68.7831875,16.804605 68.687471,16.7817368 68.5405435,16.7817368 L67.6338182,16.7817368 C66.8904578,16.7817368 66.5189853,16.4202186 66.5189853,15.6964732 L66.5189853,13.6851368 C66.5189853,12.9695459 66.8989435,12.6117505 67.6582666,12.6117505 L68.8587875,12.6117505 C69.6183479,12.6117505 69.9982468,12.9695459 69.9982468,13.6851368 L69.9982468,14.8067414 L68.8834732,14.8067414 L68.8834732,13.8556732 C68.8834732,13.7094232 68.8587875,13.6136959 68.8100095,13.5692005 C68.7611721,13.524705 68.6630226,13.5021914 68.5159171,13.5021914 L68.0014336,13.5021914 C67.8542095,13.5021914 67.7565941,13.524705 67.707282,13.5692005 C67.6582666,13.6136959 67.6338182,13.7094232 67.6338182,13.8556732 L67.6338182,15.5506959 C67.6338182,15.6964732 67.6582666,15.7922005 67.707282,15.8371686 C67.7565941,15.8816641 67.8542095,15.9041777 68.0014336,15.9041777 L68.8957567,15.9041777 C69.6468314,15.9041777 70.0226358,16.2619141 70.0226358,16.9773277 L70.0226358,19.1716095 C70.0226358,19.8871414 69.6387018,20.2449959 68.8713677,20.2449959 L67.682893,20.2449959 C66.9233325,20.2449959 66.5434336,19.8871414 66.5434336,19.1716095 L66.5434336,18.0503005 L67.6582666,18.0503005 L67.6582666,19.0006595 C67.6582666,19.1476186 67.682893,19.2433459 67.7317303,19.2874868 C67.7809831,19.3328686 67.8788358,19.3548505 68.0258226,19.3548505 L68.5405435,19.3548505 C68.687471,19.3548505 68.7831875,19.3328686 68.8283457,19.2874868 C68.8730292,19.2433459 68.8957567,19.1476186 68.8957567,19.0006595 Z M52.4889367,10.1480141 L52.4889367,8.282455 C52.4889367,8.13596864 52.4664466,8.04095045 52.4217631,7.99574591 C52.3767829,7.95148682 52.2808884,7.92873682 52.1334862,7.92873682 L51.2269389,7.92873682 C50.4841125,7.92873682 50.1124026,7.56721864 50.1124026,6.84359136 L50.1124026,4.83178227 C50.1124026,4.11690045 50.4921235,3.75875045 51.251862,3.75875045 L52.4525015,3.75875045 C53.2117653,3.75875045 53.5914268,4.11690045 53.5914268,4.83178227 L53.5914268,5.95385955 L52.4768905,5.95385955 L52.4768905,5.002555 C52.4768905,4.85654136 52.4525015,4.76081409 52.4031895,4.71620045 C52.3543521,4.67129136 52.2564993,4.64919136 52.1090971,4.64919136 L51.594851,4.64919136 C51.4478642,4.64919136 51.3495367,4.67129136 51.3006993,4.71620045 C51.251862,4.76081409 51.2269389,4.85654136 51.2269389,5.002555 L51.2269389,6.69734136 C51.2269389,6.84359136 51.251862,6.93931864 51.3006993,6.98381409 C51.3495367,7.02866409 51.4478642,7.05076409 51.594851,7.05076409 L52.4889367,7.05076409 C53.2400114,7.05076409 53.6158158,7.40891409 53.6158158,8.12415045 L53.6158158,10.3185505 C53.6158158,11.0341414 53.2320598,11.3915823 52.4645477,11.3915823 L51.276251,11.3915823 C50.5165125,11.3915823 50.136851,11.0341414 50.136851,10.3185505 L50.136851,9.19718227 L51.251862,9.19718227 L51.251862,10.1480141 C51.251862,10.2946186 51.276251,10.3902277 51.3251477,10.4344868 C51.3744004,10.479455 51.4722532,10.5018505 51.61924,10.5018505 L52.1334862,10.5018505 C52.2808884,10.5018505 52.3767829,10.479455 52.4217631,10.4344868 C52.4664466,10.3902277 52.4889367,10.2946186 52.4889367,10.1480141 Z M55.7514565,10.5018682 L57.9689576,10.5018682 L57.9689576,11.3916 L54.6366829,11.3916 L54.6366829,3.75876818 L57.8832103,3.75876818 L57.8832103,4.64920909 L55.7514565,4.64920909 L55.7514565,7.00220909 L57.5155949,7.00220909 L57.5155949,7.89229545 L55.7514565,7.89229545 L55.7514565,10.5018682 Z M60.010478,4.64918545 L60.010478,7.42929455 L61.0885198,7.42929455 C61.2355066,7.42929455 61.3333593,7.40666273 61.3826121,7.36216727 C61.4314495,7.31731727 61.4558385,7.22159 61.4558385,7.07545818 L61.4558385,5.00254909 C61.4558385,4.85653545 61.4314495,4.76080818 61.3826121,4.71619455 C61.3333593,4.67134455 61.2355066,4.64918545 61.0885198,4.64918545 L60.010478,4.64918545 Z M60.010478,8.30673545 L60.010478,11.3915764 L58.9079879,11.3915764 L58.9079879,3.75874455 L61.4191066,3.75874455 C62.1789044,3.75874455 62.5588033,4.11689455 62.5588033,4.83177636 L62.5588033,7.22159 C62.5588033,7.83926727 62.2850055,8.19345818 61.7375879,8.28244909 L62.9508077,11.3915764 L61.762511,11.3915764 L60.6107681,8.30673545 L60.010478,8.30673545 Z"/>
    <polygon fill="url(#tf1sf-colored-a)" points="-15.912 .083 -15.912 24.083 45.899 24.083 45.899 20.455 38.325 20.455 38.325 5.785 45.899 3.629 45.899 .083"/>
    <polygon fill="#FFF" points="-9 3.759 -9 9.451 -5.207 9.451 -5.207 20.245 2.052 20.245 2.052 9.451 5.845 9.451 5.845 3.759"/>
    <polygon fill="#FFF" points="15.6 3.759 15.6 20.245 22.859 20.245 22.859 15.055 27.319 15.055 27.319 10.925 22.859 10.925 22.859 7.888 29.097 7.888 29.097 3.759"/>
    <polygon fill="#FFF" points="45.899 3.55 45.899 20.399 38.405 20.399 38.405 5.709"/>
    <path fill="url(#tf1sf-colored-b)" fill-opacity=".7" d="M-16,-3.37507799e-14 L-16,17.7965311 C-16,17.7965311 8.73753281,6.7743798 46,3.65364614 L46,-3.37507799e-14 L-16,-3.37507799e-14" opacity=".6"/>
  </g>
</svg>
