<svg xmlns="http://www.w3.org/2000/svg" width="62" height="24" viewBox="0 0 62 24">
  <defs>
    <radialGradient id="tmc-colored-a" cx="45.028%" cy="0%" r="88.623%" fx="45.028%" fy="0%" gradientTransform="matrix(0 1 -.4924 0 .45 -.45)">
      <stop offset="0%" stop-color="#FFF"/>
      <stop offset="100%"/>
    </radialGradient>
  </defs>
  <g fill="none" fill-rule="evenodd">
    <polygon fill="#000" points="0 24 62 24 62 0 0 0"/>
    <path fill="url(#tmc-colored-a)" d="M0,-5.68434189e-14 L0,18 C0,18 24.7375328,6.85183171 62,3.69541851 L62,-5.68434189e-14 L0,-5.68434189e-14" opacity=".6"/>
    <path fill="#FFFFFE" d="M40.0529739,4.44024395 C39.2403697,3.77263703 38.0287188,3.87640566 37.3471514,4.67210872 L31.5705379,11.4131948 L25.7939244,4.67210872 C25.1121371,3.87640566 23.9009259,3.77263703 23.0883217,4.44024395 C22.6358489,4.81183038 22.4027968,5.34423668 22.4025769,5.88073343 L22.4023571,5.88073343 L22.4023571,19.9997263 L26.2430993,19.9997263 L26.2430993,11.0474211 L30.0880188,15.5340152 L30.0895579,15.5357375 L30.0994516,15.5471477 C30.4518879,15.9579165 30.9799927,16.2190604 31.5705379,16.2190604 C32.161083,16.2190604 32.688968,15.9579165 33.0414043,15.5471477 L33.041844,15.5471477 L36.8979765,11.0474211 L36.8979765,19.9997263 L40.7389385,19.9997263 L40.7389385,5.88073343 L40.7384988,5.88073343 C40.7382789,5.34423668 40.505007,4.81183038 40.0529739,4.44024395 Z M54.4111805,14.5312054 C53.6733289,15.4933258 52.5227991,16.1422027 51.1998988,16.2128171 C48.823647,16.3398367 46.7921365,14.5563941 46.6624188,12.229996 C46.5327011,9.90359796 48.3538052,7.91412504 50.730057,7.78710534 C52.0531772,7.71627571 53.2727431,8.23490359 54.1132696,9.11263123 C54.1508658,9.15224416 54.1943981,9.18733604 54.2361716,9.22436551 C55.0261302,9.91759166 56.2404195,9.8525748 56.9479304,9.07947694 C57.6187246,8.34706845 57.5980578,7.23898305 56.9235259,6.53520781 C55.3297575,4.8706039 53.0280384,3.87812796 50.5196505,4.01203686 C46.0140503,4.253159 42.5613618,8.02456759 42.8071658,12.4360263 C43.0531896,16.8477003 46.9049249,20.2287924 51.4100854,19.9878855 C53.918913,19.8537613 56.1008081,18.6246843 57.5,16.8001217 L54.4111805,14.5312054 Z M18.9912222,4.00019604 L6.4207009,4.00019604 C5.36009408,4.00019604 4.5,4.84197065 4.5,5.88073343 C4.5,6.91928093 5.36009408,7.76127082 6.4207009,7.76127082 L10.7853706,7.76127082 L10.7853706,19.9997263 L14.6263326,19.9997263 L14.6263326,7.76127082 L18.9912222,7.76127082 C20.0516091,7.76127082 20.9114834,6.91928093 20.9114834,5.88073343 C20.9114834,4.84197065 20.0516091,4.00019604 18.9912222,4.00019604 Z"/>
  </g>
</svg>
